<svg width="22" height="22" viewBox="0 0 22 22" fill="none" xmlns="http://www.w3.org/2000/svg">
    <rect x="0.5" y="0.5" width="21" height="21" rx="4.5" fill="#FCF8EC"/>
    <rect x="0.5" y="0.5" width="21" height="21" rx="4.5" stroke="#E1B43E"/>
    <path fill-rule="evenodd" clip-rule="evenodd" d="M6.03468 7.62919C6 7.81298 6 8.03361 6 8.47487V12C6 13.8856 6 14.8284 6.58579 15.4142C7.17157 16 8.11438 16 10 16H12C13.8856 16 14.8284 16 15.4142 15.4142C16 14.8284 16 13.8856 16 12V10.899C16 9.58277 16 8.92468 15.6153 8.49692C15.5799 8.45757 15.5424 8.42012 15.5031 8.38473C15.0753 8 14.4172 8 13.101 8H12.9142C12.3374 8 12.0489 8 11.7802 7.92339C11.6325 7.8813 11.4902 7.82236 11.3561 7.74771C11.1118 7.61183 10.9079 7.40789 10.5 7L10.2249 6.72487C10.0882 6.58816 10.0198 6.51981 9.94797 6.46026C9.63826 6.20352 9.25833 6.04614 8.85779 6.00869C8.76488 6 8.66821 6 8.47487 6C8.03361 6 7.81298 6 7.62919 6.03468C6.82015 6.18732 6.18732 6.82015 6.03468 7.62919ZM11.125 10C11.125 9.79289 11.2929 9.625 11.5 9.625H14C14.2071 9.625 14.375 9.79289 14.375 10C14.375 10.2071 14.2071 10.375 14 10.375H11.5C11.2929 10.375 11.125 10.2071 11.125 10Z" fill="#E1B43E"/>
</svg>
